<svg width="1171" height="1278" viewBox="0 0 1171 1278" fill="none" xmlns="http://www.w3.org/2000/svg">
<path d="M647.5 382.5V433.46C647.5 434.133 647.273 434.788 646.856 435.317L588.265 509.627C587.093 511.113 584.854 511.156 583.626 509.716L520.217 435.341C519.754 434.798 519.5 434.108 519.5 433.395V382.5" stroke="black" stroke-width="20"/>
<path d="M95 917H1076C1119.63 917 1155 952.37 1155 996V1014H16V996C16 952.37 51.3695 917 95 917Z" stroke="black" stroke-width="32"/>
<path d="M257.197 521.5H909.153C922.187 521.5 932.495 532.541 931.6 545.545L906.143 915.5H263.227L234.764 545.727C233.758 532.659 244.09 521.5 257.197 521.5Z" stroke="black" stroke-width="35"/>
<path d="M614 606L554 830" stroke="black" stroke-width="30" stroke-linecap="round"/>
<path d="M663 782L749 718.5L663 655" stroke="black" stroke-width="28" stroke-linecap="round" stroke-linejoin="round"/>
<path d="M507 782L421 718.5L507 655" stroke="black" stroke-width="28" stroke-linecap="round" stroke-linejoin="round"/>
<path d="M648.402 140.493C616.845 179.581 522.575 190.395 477.296 190.977C475.706 190.997 474.433 192.241 474.348 193.829L472.031 236.969C469.389 286.138 475.679 339.414 512.809 371.755C559.035 412.02 616.93 412.746 661.71 368.622C693.866 336.937 698.93 288.469 696.881 243.371L694.63 193.864C694.557 192.262 693.28 190.662 692.039 189.646C684.417 183.409 665.068 157.048 653.496 140.573C652.287 138.852 649.722 138.857 648.402 140.493Z" stroke="black" stroke-width="20"/>
<path d="M750 252C750 219.389 719.335 208.459 702.93 207.551C701.301 207.461 700 208.8 700 210.432V291.25C700 293.001 701.488 294.384 703.23 294.207C723.848 292.121 750 284.763 750 252Z" stroke="black" stroke-width="20"/>
<path d="M420 252C420 219.389 450.665 208.459 467.07 207.551C468.699 207.461 470 208.8 470 210.432V291.25C470 293.001 468.512 294.384 466.77 294.207C446.152 292.121 420 284.763 420 252Z" stroke="black" stroke-width="20"/>
<path d="M439.504 210.453C428.503 156.453 439.398 10.8939 585.005 10.918C728 10.9416 743 150.988 728 210.453" stroke="black" stroke-width="20"/>
<path d="M651 434C703.667 450 814.4 484.7 824 493.5C833.6 502.3 842 516.5 845 522.5" stroke="black" stroke-width="31"/>
<path d="M518 434C465.333 450 354.6 484.7 345 493.5C335.4 502.3 327 516.5 324 522.5" stroke="black" stroke-width="31"/>
<path d="M166.465 1158.77L209.496 1174.84V1191.71L152.852 1167.2V1155.65L166.465 1158.77ZM209.496 1145.69L166.465 1162.02L152.852 1164.95V1153.32L209.496 1128.89V1145.69ZM262.256 1107.07C272.229 1107.07 280.979 1109.02 288.504 1112.92C296.12 1116.82 301.968 1122.39 306.048 1129.65C310.219 1136.81 312.304 1145.15 312.304 1154.67C312.304 1164.19 310.219 1172.53 306.048 1179.7C301.968 1186.77 296.12 1192.25 288.504 1196.15C280.979 1200.05 272.229 1202 262.256 1202H229.072V1107.07H262.256ZM261.576 1185.82C271.549 1185.82 279.256 1183.1 284.696 1177.66C290.136 1172.22 292.856 1164.55 292.856 1154.67C292.856 1144.79 290.136 1137.08 284.696 1131.55C279.256 1125.93 271.549 1123.12 261.576 1123.12H248.112V1185.82H261.576ZM397.957 1162.7C397.957 1165.42 397.775 1167.86 397.413 1170.04H342.333C342.786 1175.48 344.69 1179.74 348.045 1182.82C351.399 1185.91 355.525 1187.45 360.421 1187.45C367.493 1187.45 372.525 1184.41 375.517 1178.34H396.053C393.877 1185.59 389.706 1191.57 383.541 1196.29C377.375 1200.91 369.805 1203.22 360.829 1203.22C353.575 1203.22 347.047 1201.64 341.245 1198.46C335.533 1195.2 331.045 1190.62 327.781 1184.73C324.607 1178.83 323.021 1172.03 323.021 1164.33C323.021 1156.53 324.607 1149.69 327.781 1143.79C330.954 1137.9 335.397 1133.37 341.109 1130.19C346.821 1127.02 353.394 1125.43 360.829 1125.43C367.991 1125.43 374.383 1126.97 380.005 1130.06C385.717 1133.14 390.114 1137.54 393.197 1143.25C396.37 1148.87 397.957 1155.35 397.957 1162.7ZM378.237 1157.26C378.146 1152.36 376.378 1148.46 372.933 1145.56C369.487 1142.57 365.271 1141.07 360.285 1141.07C355.57 1141.07 351.581 1142.52 348.317 1145.42C345.143 1148.23 343.194 1152.18 342.469 1157.26H378.237ZM444.63 1184.46L463.67 1126.66H483.934L456.054 1202H432.934L405.19 1126.66H425.59L444.63 1184.46ZM622.876 1107.07L596.356 1202H573.916L556.1 1134.41L537.468 1202L515.164 1202.14L489.596 1107.07H509.996L526.724 1180.78L546.036 1107.07H567.252L585.476 1180.38L602.34 1107.07H622.876ZM646.324 1117.68C642.97 1117.68 640.159 1116.64 637.892 1114.55C635.716 1112.38 634.628 1109.7 634.628 1106.53C634.628 1103.35 635.716 1100.73 637.892 1098.64C640.159 1096.46 642.97 1095.38 646.324 1095.38C649.679 1095.38 652.444 1096.46 654.62 1098.64C656.887 1100.73 658.02 1103.35 658.02 1106.53C658.02 1109.7 656.887 1112.38 654.62 1114.55C652.444 1116.64 649.679 1117.68 646.324 1117.68ZM655.708 1126.66V1202H636.668V1126.66H655.708ZM698.048 1142.3V1178.74C698.048 1181.28 698.637 1183.14 699.816 1184.32C701.085 1185.41 703.171 1185.95 706.072 1185.95H714.912V1202H702.944C686.896 1202 678.872 1194.2 678.872 1178.61V1142.3H669.896V1126.66H678.872V1108.02H698.048V1126.66H714.912V1142.3H698.048ZM772.399 1125.57C778.111 1125.57 783.188 1126.84 787.631 1129.38C792.073 1131.82 795.519 1135.5 797.967 1140.39C800.505 1145.2 801.775 1151 801.775 1157.8V1202H782.735V1160.38C782.735 1154.4 781.239 1149.82 778.247 1146.65C775.255 1143.38 771.175 1141.75 766.007 1141.75C760.748 1141.75 756.577 1143.38 753.495 1146.65C750.503 1149.82 749.007 1154.4 749.007 1160.38V1202H729.967V1101.36H749.007V1136.04C751.455 1132.78 754.719 1130.24 758.799 1128.42C762.879 1126.52 767.412 1125.57 772.399 1125.57ZM879.449 1183.91H841.641L835.385 1202H815.393L849.529 1106.94H871.697L905.833 1202H885.705L879.449 1183.91ZM874.281 1168.68L860.545 1128.97L846.809 1168.68H874.281ZM929.608 1117.68C926.163 1117.68 923.307 1116.64 921.04 1114.55C918.864 1112.38 917.776 1109.7 917.776 1106.53C917.776 1103.35 918.864 1100.73 921.04 1098.64C923.307 1096.46 926.163 1095.38 929.608 1095.38C932.963 1095.38 935.728 1096.46 937.904 1098.64C940.08 1100.73 941.168 1103.35 941.168 1106.53C941.168 1109.7 940.08 1112.38 937.904 1114.55C935.728 1116.64 932.963 1117.68 929.608 1117.68ZM938.992 1214.38C938.992 1222.72 936.907 1228.7 932.736 1232.33C928.656 1236.05 922.763 1237.9 915.056 1237.9H906.624V1221.72H912.064C914.965 1221.72 917.005 1221.13 918.184 1219.95C919.363 1218.86 919.952 1217.05 919.952 1214.51V1126.66H938.992V1214.38ZM1001.58 1161.43L957.881 1145.55V1128.82L1015.52 1153.32V1165.01L1001.58 1161.43ZM957.881 1175.04L1001.64 1158.7L1015.52 1155.58V1167.2L957.881 1191.71V1175.04Z" fill="black"/>
</svg>
